<svg width="42px" height="28px" viewBox="0 0 42 28" version="1.1" xmlns="http://www.w3.org/2000/svg" xmlns:xlink="http://www.w3.org/1999/xlink">
  <path d="M24.4938477,7.60328318 L34.3061523,7.60328318 C38.555347,7.60328318 42,11.0499556 42,15.3016416 C42,19.5533275 38.555347,23 34.3061523,23 L24.4938477,23 C20.244653,23 16.8,19.5533275 16.8,15.3016416 C16.8,11.0499556 20.244653,7.60328318 24.4938477,7.60328318 Z M24.7333333,20.0644323 C27.3622087,20.0644323 29.4933333,17.9320582 29.4933333,15.3016416 C29.4933333,12.6712249 27.3622087,10.5388509 24.7333333,10.5388509 C22.1044579,10.5388509 19.9733333,12.6712249 19.9733333,15.3016416 C19.9733333,17.9320582 22.1044579,20.0644323 24.7333333,20.0644323 Z M0,22.6183311 L0,2 L14.6125,2 L14.6125,5.3999088 L3.70416667,5.3999088 L3.70416667,10.6092111 L13.3291667,10.6092111 L13.3291667,14.0091199 L3.70416667,14.0091199 L3.70416667,22.6183311 L0,22.6183311 Z"></path>
</svg>