<svg width="148px" height="30px" viewBox="0 0 148 30" version="1.1" xmlns="http://www.w3.org/2000/svg" xmlns:xlink="http://www.w3.org/1999/xlink">
    <defs>
    	<mask id="switchmask">
      	<rect x="17.85" y="6.63037109" width="28" height="16.4868164" fill="white" />
      	<circle class="logo-anim-dot" id="Oval" fill="black" fill-rule="nonzero" cx="26.0712891" cy="14.8737793" r="5.1"></circle>
    	</mask>
    </defs>
    <g stroke="none" stroke-width="1" fill="#0339BE" fill-rule="evenodd" id="logo-switch">
      <rect class="logo-anim-switch" fill-rule="nonzero" x="17.85" y="6.63037109" width="27" height="16.4868164" rx="8.2434082" mask="url(#switchmask)"></rect>
      <polygon id="Path" points="0.456054688 22.8046875 0.456054688 0.7265625 16.1123047 0.7265625 16.1123047 4.3671875 4.42480469 4.3671875 4.42480469 9.9453125 14.7373047 9.9453125 14.7373047 13.5859375 4.42480469 13.5859375 4.42480469 22.8046875"></polygon>
      <path d="M48.2685547,22.8046875 L48.2685547,7.1953125 L51.9873047,7.1953125 L51.9873047,9.8203125 C52.6591797,7.9296875 54.4248047,6.8671875 56.1748047,6.8671875 C57.2060547,6.8671875 58.2841797,7.2265625 59.0341797,7.9921875 L57.2998047,11.1171875 C56.7841797,10.7734375 56.2060547,10.5859375 55.5966797,10.5859375 C53.8154297,10.5859375 51.9560547,12.2421875 51.9560547,16.2109375 L51.9560547,22.8046875 L48.2685547,22.8046875 Z"></path>
      <path d="M61.0341797,22.8046875 L61.0029297,7.1953125 L64.6904297,7.1953125 L64.6904297,9.1484375 C65.7060547,7.4140625 67.3154297,6.8671875 68.9091797,6.8671875 C70.6748047,6.8671875 72.5966797,7.5390625 73.5185547,9.6171875 C74.7685547,7.6015625 76.6279297,6.8671875 78.5185547,6.8671875 C82.4873047,6.8671875 84.1123047,10.1328125 84.1123047,13.4296875 L84.1123047,22.8046875 L80.2998047,22.8046875 L80.2998047,13.9140625 C80.2998047,11.9921875 79.7216797,10.4140625 77.7529297,10.4140625 C75.6904297,10.4140625 74.4873047,12.1484375 74.4873047,14.2265625 L74.4873047,22.8046875 L70.6748047,22.8046875 L70.6748047,13.8515625 C70.6748047,11.9609375 70.0966797,10.4140625 68.1435547,10.4140625 C66.0654297,10.4140625 64.8466797,12.1484375 64.8466797,14.2265625 L64.8466797,22.8046875 L61.0341797,22.8046875 Z"></path>
      <path d="M93.8779297,6.8671875 C98.1279297,6.8671875 100.62793,9.5234375 100.62793,13.3359375 L100.62793,22.8046875 L97.4873047,22.8046875 L97.2529297,20.7109375 C96.2529297,22.3203125 94.1591797,23.1171875 92.3779297,23.1171875 C89.1748047,23.1171875 86.7060547,21.2734375 86.7060547,18.0078125 C86.7060547,14.6171875 89.4248047,13.4921875 92.9091797,13.4921875 L97.1591797,13.4921875 C97.0810547,11.1796875 96.3935547,10.1953125 93.9091797,10.1953125 C92.1123047,10.1953125 90.8935547,11.2578125 90.2216797,12.3984375 L87.3154297,10.2890625 C88.8154297,8.2421875 90.7998047,6.8671875 93.8779297,6.8671875 Z M93.1435547,19.8984375 C95.4873047,19.8984375 96.9404297,18.2109375 97.1748047,16.3671875 L97.1748047,16.2421875 L93.1435547,16.2421875 C91.4091797,16.2421875 90.6123047,17.1484375 90.6123047,18.1328125 C90.6123047,19.1640625 91.4404297,19.8984375 93.1435547,19.8984375 Z"></path>
      <path d="M107.862305,23.1171875 C106.06543,23.1171875 104.59668,22.4453125 104.59668,19.6953125 L104.59668,0.7265625 L108.40918,0.7265625 L108.40918,18.6484375 C108.40918,19.3828125 108.893555,19.6953125 109.65918,19.6953125 C109.87793,19.6953125 110.299805,19.6640625 110.706055,19.6015625 L110.706055,22.8046875 C109.90918,22.9609375 108.768555,23.1171875 107.862305,23.1171875 Z"></path>
      <path d="M113.549805,4.2421875 L113.549805,0.7265625 L117.549805,0.7265625 L117.549805,4.2421875 L113.549805,4.2421875 Z M113.643555,22.8046875 L113.643555,7.1953125 L117.456055,7.1953125 L117.456055,22.8046875 L113.643555,22.8046875 Z"></path>
      <path d="M127.518555,23.1171875 C124.47168,23.1171875 122.643555,21.3359375 122.643555,18.4921875 L122.643555,10.3828125 L120.12793,10.3828125 L120.12793,7.1953125 L122.706055,7.1953125 L122.706055,3.3203125 L126.456055,0.6015625 L126.456055,7.1953125 L130.362305,7.1953125 L130.362305,10.3828125 L126.456055,10.3828125 L126.456055,17.8203125 C126.456055,19.3203125 127.19043,19.7578125 128.19043,19.7578125 C128.987305,19.7578125 129.84668,19.4453125 130.362305,19.1953125 L130.362305,22.6484375 C129.78418,22.8671875 128.65918,23.1171875 127.518555,23.1171875 Z"></path>
      <polygon points="134.65918 29.5234375 137.53418 22.3828125 131.424805 7.1953125 135.612305 7.1953125 139.549805 18.0390625 143.549805 7.1953125 147.737305 7.1953125 138.81543 29.5234375"></polygon>
    </g>
</svg>