<?xml version="1.0" encoding="UTF-8"?>
<svg width="24px" height="24px" viewBox="0 0 24 24" version="1.1" xmlns="http://www.w3.org/2000/svg" xmlns:xlink="http://www.w3.org/1999/xlink">
    <!-- Generator: Sketch 52.6 (67491) - http://www.bohemiancoding.com/sketch -->
    <title>email</title>
    <desc>Created with Sketch.</desc>
    <g id="email" stroke="none" stroke-width="1" fill="none" fill-rule="evenodd">
        <circle id="bg" fill="#7E57C2" cx="12" cy="12" r="12"></circle>
        <path d="M14.0833333,8.48333333 L15.35,8.48333333 L14.95,12.7 C14.9333333,12.8333333 14.9333333,12.9833333 14.9333333,12.9833333 C14.9333333,13.4333333 15.2,13.6333333 15.5833333,13.6333333 C16.55,13.6333333 16.8333333,12.5 16.8333333,11.1 C16.8333333,7.8 15.1166667,6.53333333 12.2333333,6.53333333 C9.71666667,6.53333333 7.25,8.28333333 7.25,12 C7.25,15.3833333 9.71666667,17 12.2166667,17 C13.3833333,17 14.4833333,17 16.2333333,16.1166667 L16.8166667,17.5333333 C15.1,18.3 14.2333333,18.5333333 12.2166667,18.5333333 C8.26666667,18.5333333 5.5,16.0333333 5.5,11.95 C5.5,7.66666667 8.36666667,5 12.3166667,5 C16.3166667,5 18.5,7.28333333 18.5,11.1 C18.5,13.75 17.3,15.1666667 15.5166667,15.1666667 C14.6833333,15.1666667 13.9166667,14.7333333 13.6333333,14.05 C13.1333333,14.8166667 12.3666667,15.1666667 11.4666667,15.1666667 C9.55,15.1666667 8.55,13.7666667 8.55,12.05 C8.55,9.96666667 9.98333333,8.36666667 12.1,8.36666667 C12.9666667,8.36666667 13.55,8.66666667 13.9,9.2 L14.0833333,8.48333333 Z M11.9833333,9.9 C10.8833333,9.9 10.1833333,10.7833333 10.1833333,12.1 C10.1833333,12.95 10.6666667,13.6333333 11.5833333,13.6333333 C12.9833333,13.6333333 13.4666667,12.4666667 13.4666667,11.4333333 C13.4666667,10.4166667 12.8666667,9.9 11.9833333,9.9 Z" id="@" fill="#FFFFFF"></path>
    </g>
</svg>