<?xml version="1.0" encoding="UTF-8"?>
<svg width="45px" height="23px" viewBox="0 0 45 23" version="1.1" xmlns="http://www.w3.org/2000/svg" xmlns:xlink="http://www.w3.org/1999/xlink">
    <!-- Generator: Sketch 52.6 (67491) - http://www.bohemiancoding.com/sketch -->
    <title>Group 3</title>
    <desc>Created with Sketch.</desc>
    <g id="Page-1" stroke="none" stroke-width="1" fill="none" fill-rule="evenodd">
        <g id="Group-3" fill="#0339BE">
            <path d="M26.2434082,6 L36.7565918,6 C41.3093004,6 45,9.69069957 45,14.2434082 C45,18.7961168 41.3093004,22.4868164 36.7565918,22.4868164 L26.2434082,22.4868164 C21.6906996,22.4868164 18,18.7961168 18,14.2434082 C18,9.69069957 21.6906996,6 26.2434082,6 Z M26.5,19.3434082 C29.3166522,19.3434082 31.6,17.0600604 31.6,14.2434082 C31.6,11.426756 29.3166522,9.1434082 26.5,9.1434082 C23.6833478,9.1434082 21.4,11.426756 21.4,14.2434082 C21.4,17.0600604 23.6833478,19.3434082 26.5,19.3434082 Z" id="Combined-Shape" fill-rule="nonzero"></path>
            <polygon id="Path" points="0 22.078125 0 0 15.65625 0 15.65625 3.640625 3.96875 3.640625 3.96875 9.21875 14.28125 9.21875 14.28125 12.859375 3.96875 12.859375 3.96875 22.078125"></polygon>
        </g>
    </g>
</svg>