<?xml version="1.0" encoding="UTF-8"?>
<svg width="24px" height="24px" viewBox="0 0 24 24" version="1.1" xmlns="http://www.w3.org/2000/svg" xmlns:xlink="http://www.w3.org/1999/xlink">
    <!-- Generator: Sketch 52.6 (67491) - http://www.bohemiancoding.com/sketch -->
    <title>multiple</title>
    <desc>Created with Sketch.</desc>
    <g id="multiple" stroke="none" stroke-width="1" fill="none" fill-rule="evenodd">
        <circle id="bg" fill="#78CE14" cx="12" cy="12" r="12"></circle>
        <path d="M5.17307692,12.7961541 C5.05769231,12.6907695 5,12.5326926 5,12.4273079 C5,12.3219233 5.05769231,12.1638464 5.17307692,12.0584618 L5.98076923,11.3207694 C6.21153846,11.1100002 6.55769231,11.1100002 6.78846154,11.3207694 L6.84615385,11.3734617 L10.0192308,14.482308 C10.1346154,14.5876926 10.3076923,14.5876926 10.4230769,14.482308 L18.1538462,7.15807693 L18.2115385,7.15807693 C18.4423077,6.94730769 18.7884615,6.94730769 19.0192308,7.15807693 L19.8269231,7.89576927 C20.0576923,8.10653851 20.0576923,8.42269237 19.8269231,8.63346161 L10.5961538,17.3803851 C10.4807692,17.4857697 10.3653846,17.538462 10.1923077,17.538462 C10.0192308,17.538462 9.90384615,17.4857697 9.78846154,17.3803851 L5.28846154,12.954231 L5.17307692,12.7961541 Z" id="Path" fill="#FFFFFF"></path>
    </g>
</svg>