<svg width="36px" height="36px" viewBox="0 0 36 36" version="1.1" xmlns="http://www.w3.org/2000/svg">
  <defs>
    <path id="main" d="M32.0986828,15.8148901 C31.5106966,18.3076928 30.1504164,20.5749448 28.1682144,22.3705128 L18.1089854,31.3452349 L17.4426481,30.7405168 L8.21654492,22.3675927 C6.23737493,20.5743969 4.87721216,18.3079698 4.2885129,15.8145146 C4.02009809,14.6783011 3.95884311,13.7499203 4.02040361,13.0541562 C4.02888654,12.9582811 4.03856491,12.883729 4.04387212,12.8532568 L4.04518984,12.8561723 C4.44604138,8.34258388 7.64314976,5 11.6840824,5 C14.3711363,5 16.7648309,6.48146822 18.1140301,8.89689812 C19.4736879,6.50616597 21.9695846,5.00054977 24.7036219,5.00054977 C28.7515265,5.00054977 31.9420839,8.35121088 32.3458597,12.8733768 C32.3486736,12.8864297 32.3580683,12.9583798 32.3663732,13.0515773 C32.4284391,13.7480763 32.3673452,14.6775602 32.0986828,15.8148901 Z"></path>
  </defs>
  <use href="#main" class="border" x="0" y="0"/>
  <use href="#main" class="fill" x="0" y="0"/>
</svg>