<?xml version="1.0" encoding="UTF-8"?>
<svg width="24px" height="24px" viewBox="0 0 24 24" version="1.1" xmlns="http://www.w3.org/2000/svg" xmlns:xlink="http://www.w3.org/1999/xlink">
    <!-- Generator: Sketch 52.6 (67491) - http://www.bohemiancoding.com/sketch -->
    <title>mark</title>
    <desc>Created with Sketch.</desc>
    <g id="Page-1" stroke="none" stroke-width="1" fill="none" fill-rule="evenodd">
        <g id="mark" transform="translate(1.000000, 5.000000)" fill="#000000" fill-rule="nonzero">
            <path d="M6.82005615,0.472778317 L14.7049439,0.472778317 C18.1194753,0.472778317 20.8875,3.240803 20.8875,6.65533448 C20.8875,10.0698659 18.1194753,12.8378906 14.7049439,12.8378906 L6.82005615,12.8378906 C3.40552468,12.8378906 0.6375,10.0698659 0.6375,6.65533448 C0.6375,3.240803 3.40552468,0.472778317 6.82005615,0.472778317 Z M6.8034668,10.4803345 C8.91595597,10.4803345 10.6284668,8.76782363 10.6284668,6.65533448 C10.6284668,4.54284533 8.91595597,2.83033447 6.8034668,2.83033447 C4.69097763,2.83033447 2.97846679,4.54284533 2.97846679,6.65533448 C2.97846679,8.76782363 4.69097763,10.4803345 6.8034668,10.4803345 Z" id="Combined-Shape"></path>
        </g>
    </g>
</svg>