<?xml version="1.0" encoding="UTF-8"?>
<svg width="24px" height="24px" viewBox="0 0 24 24" version="1.1" xmlns="http://www.w3.org/2000/svg" xmlns:xlink="http://www.w3.org/1999/xlink">
    <!-- Generator: Sketch 52.6 (67491) - http://www.bohemiancoding.com/sketch -->
    <title>number</title>
    <desc>Created with Sketch.</desc>
    <g id="number" stroke="none" stroke-width="1" fill="none" fill-rule="evenodd">
        <circle id="bg" fill="#5058EF" cx="12" cy="12" r="12"></circle>
        <path d="M11.9999626,11.0093023 L13.137038,9.9433944 C13.3645568,9.72985472 13.62252,9.54769197 13.9038798,9.40196177 C14.4088496,9.13923012 14.9838383,9.000107 15.5656178,9.000107 C17.4592687,9.000107 19,10.4444356 19,12.2198403 C19,13.995245 17.4592687,15.4394666 15.5656178,15.4394666 C14.9835815,15.4394666 14.4083645,15.3002365 13.9024247,15.0369163 C13.6232903,14.8923096 13.3650704,14.7101736 13.137038,14.4961792 L11.9999399,13.4301998 L10.8630762,14.4960722 C10.6350723,14.7098259 10.3768523,14.8922294 10.095521,15.0377456 C9.59126454,15.3002365 9.01630434,15.4394666 8.43438218,15.4394666 C6.54061716,15.4394666 5,13.9951647 5,12.2197333 C5,10.4443018 6.5404745,9 8.43438218,9 C9.01593341,9 9.59089362,9.13923012 10.0970903,9.40255025 C10.3768523,9.54750472 10.6349296,9.72953373 10.8627053,9.94307341 L11.9999626,11.0093023 Z M8.43438218,10.7119554 C7.5475037,10.7119554 6.82608572,11.3883115 6.82608572,12.2197333 C6.82608572,13.0511551 7.5475037,13.7275112 8.43438218,13.7275112 C8.71072031,13.7275112 8.97199323,13.6644096 9.21095366,13.5399986 C9.34414379,13.4710657 9.46489371,13.3856819 9.57177679,13.2856127 L10.7086863,12.21976 L9.57177679,11.1537736 C9.46489371,11.0536777 9.34388699,10.9683207 9.21240882,10.9000565 C8.97199323,10.7750837 8.71060617,10.7119554 8.43438218,10.7119554 Z M13.2912851,12.2197333 L14.4280806,13.2857197 C14.5353346,13.3860296 14.6558562,13.4714134 14.7868493,13.5391961 C15.0277785,13.6645166 15.2890229,13.7275112 15.5655037,13.7275112 C16.4523822,13.7275112 17.1738002,13.0511819 17.1738002,12.2197333 C17.1738002,11.3882847 16.4523822,10.7119554 15.5655037,10.7119554 C15.2890229,10.7119554 15.0276644,10.775057 14.7884472,10.899468 C14.6557421,10.9684009 14.5349922,11.0536509 14.4282232,11.1538538 L13.2912851,12.2197333 Z" id="Combined-Shape" fill="#FFFFFF" fill-rule="nonzero"></path>
    </g>
</svg>